MoBL_ARMS_module2_4_allmuscles_wrist_states		
version=1		
nRows=272		
nColumns=3		
inDegrees=yes		
		
# SIMM Motion File Header:		
name MoBL_ARMS_module2_4_allmuscles_wrist_states		
datacolumns 3		
datarows 272		
otherdata 1		
range 0.673237083 1.441886784		
endheader		
time	deviation	flexion
0.673237083	-7.075422575	60.25095477
0.674553688	-7.075196061	60.26390224
0.675870293	-7.074961036	60.27658529
0.677186898	-7.074714433	60.28900008
0.678503503	-7.074455793	60.30114407
0.679820108	-7.07418301	60.31301411
0.681136713	-7.073896659	60.32460863
0.682301017	-7.073633303	60.33463106
0.683465322	-7.073363833	60.3444363
0.68493513	-7.073010963	60.35650245
0.686404939	-7.072643124	60.36822086
0.687874747	-7.072256603	60.37959109
0.689344556	-7.071850137	60.39061413
0.69052864	-7.071505979	60.39924201
0.691712724	-7.071146723	60.40764567
0.693324691	-7.07063199	60.41872693
0.694936657	-7.070092309	60.4293991
0.696548624	-7.069528778	60.43966657
0.69796834	-7.069015685	60.44837936
0.699388056	-7.068485905	60.45678632
0.700822334	-7.067934473	60.46497338
0.702256612	-7.067369049	60.47285842
0.703690891	-7.06679066	60.48044691
0.705125169	-7.066200445	60.4877447
0.706559448	-7.065600197	60.49475829
0.707993726	-7.064990681	60.50149394
0.70964933	-7.064275784	60.50893144
0.711304934	-7.063550051	60.51601711
0.712656284	-7.062953137	60.52154859
0.714007633	-7.062351382	60.52685936
0.715896685	-7.061499389	60.53392316
0.717785738	-7.060645442	60.54058733
0.719822016	-7.059713889	60.54733862
0.721858294	-7.058775935	60.5536641
0.723894572	-7.057841747	60.55958936
0.725415912	-7.057135094	60.56376384
0.726937253	-7.056422594	60.56772985
0.728686218	-7.055596033	60.5720392
0.730435184	-7.054770421	60.57609505
0.73210324	-7.053980405	60.57973349
0.733771296	-7.053191153	60.58315903
0.735432042	-7.052402914	60.58636411
0.737092789	-7.051615164	60.58937326
0.73884327	-7.05078088	60.59233873
0.740593751	-7.049944992	60.5951026
0.742318116	-7.049116897	60.59763304
0.74404248	-7.048288715	60.59998127
0.746013302	-7.047339514	60.60244708
0.747984124	-7.04639267	60.60468935
0.749925402	-7.04545939	60.60668621
0.751866681	-7.044531178	60.60848299
0.754106369	-7.043463691	60.61031749
0.756346057	-7.042405657	60.61191649
0.758585746	-7.041343939	60.61329176
0.761966023	-7.039746335	60.61499144
0.7653463	-7.038179509	60.61631942
0.768726577	-7.036659613	60.61734549
0.773080347	-7.034761505	60.61830154
0.780549528	-7.0316221	60.61926711
0.788018709	-7.028528137	60.62010243
0.791643449	-7.027056309	60.62059875
0.796004086	-7.025292385	60.6212604
0.800591656	-7.023420047	60.62200746
0.805179226	-7.021502291	60.62278734
0.810879982	-7.019121046	60.62375804
0.816580738	-7.016752943	60.62467473
0.822281495	-7.014444823	60.62549783
0.827982251	-7.012116783	60.62615827
0.832066505	-7.010419615	60.62649989
0.836150758	-7.008686792	60.62672874
0.840235012	-7.006901059	60.62685987
0.84563644	-7.00448197	60.62692404
0.851037867	-7.001886757	60.62693958
0.853254248	-7.000728086	60.62695924
0.8561388	-6.999077569	60.6270233
0.860475042	-6.996258814	60.62728411
0.864811284	-6.993034329	60.62787851
0.868707924	-6.989712936	60.62882233
0.872604563	-6.985690506	60.63028369
0.875654547	-6.981864234	60.63191831
0.878704532	-6.977359711	60.63411161
0.881677356	-6.972342898	60.63693005
0.884147172	-6.967726773	60.63987499
0.886616989	-6.962723523	60.64342396
0.889566732	-6.9562554	60.64851894
0.892516476	-6.949290028	60.65460955
0.89546622	-6.941921664	60.66175242
0.898078216	-6.935112865	60.66892716
0.899557472	-6.931141928	60.67331894
0.901704857	-6.925229062	60.68008407
0.903825212	-6.919221015	60.68718274
0.905945567	-6.913047274	60.69465227
0.907834222	-6.9074125	60.70158201
0.909722877	-6.901648539	60.70873263
0.911611532	-6.895754845	60.71606499
0.913500187	-6.889729195	60.72353788
0.915336509	-6.883736648	60.73089845
0.91717283	-6.877604972	60.73831607
0.919009152	-6.871319222	60.74575349
0.9206846	-6.86542469	60.75252769
0.922360048	-6.859345998	60.75926928
0.924592738	-6.850893728	60.76817199
0.926825427	-6.841960744	60.77696133
0.9287872	-6.83366205	60.78458719
0.93051659	-6.825981439	60.79124538
0.932245981	-6.817958587	60.79784999
0.933975371	-6.809604663	60.8044116
0.936427934	-6.797227044	60.8136668
0.938880497	-6.784282995	60.82289789
0.940594625	-6.774927611	60.82935233
0.942308754	-6.76533262	60.83581719
0.944022882	-6.75550186	60.84229711
0.946272569	-6.742236972	60.85082974
0.948522256	-6.728541246	60.85939832
0.950363399	-6.716989794	60.86644953
0.952204542	-6.705105363	60.87353376
0.954045686	-6.692865086	60.88064992
0.955906627	-6.680113513	60.88787278
0.957767568	-6.666969899	60.89512826
0.959438577	-6.65483108	60.90166688
0.961109586	-6.642379411	60.90822361
0.963297365	-6.625615722	60.91682031
0.965485143	-6.60834247	60.92540661
0.967672922	-6.590569075	60.93395177
0.969860701	-6.5722857	60.94241237
0.971645773	-6.556988919	60.94922286
0.973430844	-6.541349448	60.95590688
0.975215916	-6.525365449	60.96242864
0.977000988	-6.509029469	60.96875388
0.978786059	-6.492338142	60.97484479
0.980571131	-6.475289042	60.98066189
0.98214032	-6.46000408	60.98551627
0.984370382	-6.437792289	60.99193873
0.986600444	-6.415009133	60.99773376
0.988830506	-6.391664705	61.00282823
0.990986769	-6.368566679	61.00699879
0.993143033	-6.344961374	61.01036315
0.995299297	-6.320855415	61.01285543
0.99745556	-6.296247848	61.01441596
0.999611824	-6.271140403	61.01499416
1.001768087	-6.245535434	61.01455173
1.005435179	-6.20087859	61.01137508
1.00910227	-6.154937955	61.00514629
1.011465148	-6.124745865	60.99956148
1.013828025	-6.094155472	60.99277764
1.016330719	-6.061391286	60.98433525
1.018833413	-6.028319643	60.97467194
1.021533346	-5.99238341	60.96297766
1.023915515	-5.960522597	60.95165996
1.026297684	-5.928564438	60.93949724
1.028679852	-5.89655543	60.92657384
1.031850601	-5.853941972	60.90832605
1.03502135	-5.811399188	60.88902794
1.037429043	-5.779182549	60.8737571
1.039836737	-5.747078323	60.85800399
1.042244431	-5.715104917	60.84179982
1.045865471	-5.66728687	60.81661034
1.049012224	-5.625985149	60.793904
1.052158976	-5.584922324	60.77038983
1.055305729	-5.544117501	60.74599593
1.058649132	-5.501067943	60.71901654
1.061992536	-5.458336075	60.69084586
1.065335939	-5.415936968	60.66138799
1.068611167	-5.37476779	60.63117556
1.071886395	-5.334038698	60.59948244
1.076895173	-5.272852126	60.54777882
1.081903951	-5.213119445	60.49166161
1.085907429	-5.166411671	60.44318261
1.090939817	-5.108870901	60.37680022
1.095972205	-5.052115328	60.3032885
1.103466826	-4.968213071	60.17876025
1.106605217	-4.933226919	60.12086235
1.109743608	-4.898416064	60.05943007
1.114770008	-4.843413091	59.953595
1.117992658	-4.808982936	59.88098338
1.121228288	-4.775413939	59.80449636
1.124463918	-4.743173267	59.72462843
1.127911804	-4.710567185	59.63610061
1.131359691	-4.680069955	59.54441399
1.134714557	-4.652803618	59.45253542
1.138948572	-4.62214441	59.33332625
1.14249927	-4.599698883	59.23095074
1.146049969	-4.580206354	59.12673934
1.15063122	-4.559732277	58.99006133
1.154468621	-4.547039939	58.87388446
1.157892305	-4.539260916	58.76891275
1.160533958	-4.535469173	58.68700053
1.164554823	-4.533151364	58.56069416
1.168123471	-4.534477474	58.4469195
1.172560101	-4.540520047	58.30330338
1.17566009	-4.547575373	58.20156573
1.178760079	-4.556937855	58.09871348
1.182389274	-4.570832457	57.97691342
1.185377638	-4.584559533	57.87555877
1.189553971	-4.606951257	57.73252253
1.193730303	-4.632722833	57.58824122
1.197204367	-4.656418293	57.46763109
1.200678431	-4.6819126	57.34684077
1.205597684	-4.720662252	57.17623155
1.210516938	-4.762066203	57.00717993
1.214343164	-4.795819337	56.87753609
1.21919532	-4.840250897	56.71639541
1.224047476	-4.88627148	56.5598706
1.227675143	-4.921672742	56.44638493
1.230828196	-4.953158169	56.35044105
1.235695063	-5.003026751	56.20753407
1.238420051	-5.031644273	56.13034431
1.243159997	-5.083541304	56.00086537
1.245865518	-5.115341831	55.92948043
1.249250767	-5.158620943	55.84228617
1.252304382	-5.201706919	55.76514075
1.255357996	-5.249133549	55.68884961
1.260617935	-5.343072333	55.55762441
1.264429488	-5.423100972	55.46089635
1.26824104	-5.514692742	55.36102718
1.272052593	-5.618113443	55.25652319
1.275111479	-5.709460103	55.16846062
1.278170366	-5.808315251	55.07607443
1.281349237	-5.9192899	54.97496634
1.285113911	-6.061828716	54.84789246
1.288878584	-6.216052052	54.71235081
1.292061005	-6.354511675	54.59092818
1.295243425	-6.49852654	54.46305124
1.299430455	-6.690783564	54.28422555
1.301512048	-6.783946065	54.19021958
1.303593641	-6.872513097	54.09221214
1.305675234	-6.953749196	53.98959524
1.307534517	-7.017893448	53.89351759
1.3093938	-7.072456035	53.79285097
1.311253083	-7.116578489	53.68733265
1.313112367	-7.150353895	53.5769004
1.31497165	-7.174879927	53.46171396
1.316830933	-7.192048619	53.34211925
1.319088301	-7.20624234	53.19163898
1.32134567	-7.216564416	53.03610173
1.323603039	-7.22567929	52.87616307
1.326389489	-7.237275392	52.67337612
1.329175939	-7.249585855	52.46524066
1.331766284	-7.260865363	52.26739757
1.334356629	-7.271049765	52.06583564
1.337825927	-7.282224618	51.79115782
1.341295225	-7.290893419	51.51277228
1.347222561	-7.303019617	51.03396353
1.35029928	-7.309348983	50.78593276
1.354619628	-7.31943854	50.43969782
1.358939975	-7.331255075	50.09646687
1.361481457	-7.338774429	49.89597696
1.364998602	-7.349615819	49.62004376
1.368515747	-7.361498098	49.34535915
1.372032893	-7.375725876	49.07077465
1.375668187	-7.393797053	48.78492369
1.379303481	-7.414211782	48.4937912
1.382938776	-7.43484085	48.19386489
1.385016204	-7.446169498	48.01734989
1.387093632	-7.457100606	47.8365253
1.391044242	-7.477154744	47.47935028
1.394994853	-7.497179441	47.10269283
1.398762377	-7.516794196	46.72327591
1.402529901	-7.536309042	46.32238425
1.405602599	-7.551447885	45.97866037
1.408675298	-7.565872422	45.6194287
1.411747997	-7.580418724	45.24436585
1.414820695	-7.596175894	44.85295735
1.418831868	-7.618726481	44.31592183
1.421914701	-7.636223527	43.88167391
1.42442916	-7.649563385	43.51284538
1.426943619	-7.661664333	43.13039334
1.430155517	-7.675467803	42.62155767
1.431895854	-7.682439315	42.33623956
1.433636191	-7.689216068	42.04415475
1.437761487	-7.70476962	41.32489969
1.441886784	-7.71895112	40.56843982
